<svg width="10" height="10" viewBox="0 0 10 10" fill="none" xmlns="http://www.w3.org/2000/svg">
<path d="M5.60079 4.9999L9.81496 0.81067C9.85266 0.773192 9.88256 0.728701 9.90296 0.679734C9.92337 0.630768 9.93387 0.578286 9.93387 0.525285C9.93387 0.472284 9.92337 0.419802 9.90296 0.370836C9.88256 0.321869 9.85266 0.277377 9.81496 0.2399C9.77726 0.202423 9.7325 0.172694 9.68324 0.152412C9.63398 0.132129 9.58119 0.12169 9.52787 0.12169C9.47456 0.12169 9.42176 0.132129 9.3725 0.152412C9.32325 0.172694 9.27849 0.202423 9.24079 0.2399L5.02662 4.38605L0.812455 0.196823C0.774754 0.159346 0.729998 0.129617 0.68074 0.109335C0.631482 0.0890524 0.578688 0.0786133 0.525372 0.0786133C0.472055 0.0786133 0.419261 0.0890524 0.370003 0.109335C0.320745 0.129617 0.275988 0.159346 0.238288 0.196823C0.200588 0.234301 0.170682 0.278793 0.150279 0.327759C0.129876 0.376725 0.119374 0.429207 0.119374 0.482208C0.119374 0.535209 0.129876 0.587691 0.150279 0.636657C0.170682 0.685624 0.200588 0.730116 0.238288 0.767593L4.45245 4.9999L0.238288 9.14606C0.199961 9.18318 0.1695 9.22756 0.148702 9.27657C0.127903 9.32559 0.117188 9.37824 0.117188 9.43144C0.117188 9.48464 0.127903 9.53729 0.148702 9.58631C0.1695 9.63532 0.199961 9.6797 0.238288 9.71682C0.273962 9.75547 0.317573 9.78605 0.366168 9.80649C0.414764 9.82693 0.46721 9.83675 0.519955 9.83529C0.574324 9.83691 0.628434 9.82721 0.678808 9.80681C0.729182 9.7864 0.774706 9.75575 0.812455 9.71682L5.02662 5.52759L9.24079 9.71682C9.27646 9.75547 9.32007 9.78605 9.36867 9.80649C9.41726 9.82693 9.46971 9.83675 9.52246 9.83529C9.57691 9.8376 9.63123 9.82821 9.6817 9.80777C9.73218 9.78733 9.77763 9.75631 9.81496 9.71682C9.85328 9.6797 9.88374 9.63532 9.90454 9.58631C9.92534 9.53729 9.93606 9.48464 9.93606 9.43144C9.93606 9.37824 9.92534 9.32559 9.90454 9.27657C9.88374 9.22756 9.85328 9.18318 9.81496 9.14606L5.60079 4.9999Z" fill="black"/>
</svg>
